<svg version="1.1" xmlns="http://www.w3.org/2000/svg" xmlns:xlink="http://www.w3.org/1999/xlink" width="59.4179" height="72.81" viewBox="0,0,59.4179,72.81"><g transform="translate(-207.21,-143.28)"><g data-paper-data="{&quot;isPaintingLayer&quot;:true}" fill-rule="nonzero" stroke-linejoin="miter" stroke-miterlimit="10" stroke-dasharray="" stroke-dashoffset="0" style="mix-blend-mode: normal"><path d="M243.6929,215.37v-21.24" data-paper-data="{&quot;index&quot;:null}" fill="none" stroke="#e54529" stroke-width="1.44" stroke-linecap="round"/><path d="M234.7089,194.13v21.24" data-paper-data="{&quot;index&quot;:null}" fill="none" stroke="#e54529" stroke-width="1.44" stroke-linecap="round"/><g data-paper-data="{&quot;index&quot;:null}"><path d="M208.7079,164.796l4.588,3.095" fill="none" stroke="#e54529" stroke-width="2.88" stroke-linecap="round"/><path d="M213.096,167.9291l-4.446,2.0828" fill="none" stroke="#e54529" stroke-width="2.88" stroke-linecap="round"/><path d="M211.3309,165.165c0,-7.556 6.034,-13.681 13.478,-13.681c7.443,0 13.478,6.125 13.478,13.681c0,7.556 -6.035,13.681 -13.478,13.681c-7.444,0 -13.478,-6.125 -13.478,-13.681" fill="#ffdb5d" stroke="none" stroke-width="1" stroke-linecap="butt"/><path d="M219.2819,165.165c0,-3.098 2.475,-5.609 5.527,-5.609c3.052,0 5.525,2.511 5.525,5.609c0,3.097 -2.473,5.609 -5.525,5.609c-3.052,0 -5.527,-2.512 -5.527,-5.609" fill="#fff4e3" stroke="none" stroke-width="1" stroke-linecap="butt"/><path d="M221.2029,165.165c0,-2.022 1.614,-3.66 3.606,-3.66c1.991,0 3.606,1.638 3.606,3.66c0,2.022 -1.615,3.66 -3.606,3.66c-1.992,0 -3.606,-1.638 -3.606,-3.66" fill="#17242d" stroke="none" stroke-width="1" stroke-linecap="butt"/><path d="M222.2669,144c2.35,0 4.255,1.934 4.255,4.32c0,2.386 -1.905,4.32 -4.255,4.32" fill="none" stroke="#ffdb5d" stroke-width="1.44" stroke-linecap="butt"/></g><path d="M266.6279,175.289c0,14.108 -11.267,25.545 -25.165,25.545c-13.899,0 -25.166,-11.437 -25.166,-25.545z" data-paper-data="{&quot;index&quot;:null}" fill="#ffdb5d" stroke="none" stroke-width="1" stroke-linecap="butt"/><path d="M256.5789,175.32c0,6.511 -5.2,11.79 -11.615,11.79c-6.415,0 -11.615,-5.279 -11.615,-11.79z" data-paper-data="{&quot;index&quot;:null}" fill="#fecb43" stroke="none" stroke-width="1" stroke-linecap="butt"/><path d="M238.1969,175.424l10.566,-9.2c1.497,-1.304 3.403,-2.02 5.375,-2.02h12.49v11.19z" data-paper-data="{&quot;index&quot;:null}" fill="#ffdb5d" stroke="none" stroke-width="1" stroke-linecap="butt"/></g></g></svg>