<svg version="1.1" xmlns="http://www.w3.org/2000/svg" xmlns:xlink="http://www.w3.org/1999/xlink" width="61.38679" height="59.637" viewBox="0,0,61.38679,59.637"><g transform="translate(-218.33021,-156.45)"><g data-paper-data="{&quot;isPaintingLayer&quot;:true}" fill-rule="nonzero" stroke-linejoin="miter" stroke-miterlimit="10" stroke-dasharray="" stroke-dashoffset="0" style="mix-blend-mode: normal"><path d="M267.30621,215.367v-20.97" data-paper-data="{&quot;index&quot;:null}" fill="none" stroke="#e54529" stroke-width="1.44" stroke-linecap="round"/><path d="M258.10821,215.367v-20.97" data-paper-data="{&quot;index&quot;:null}" fill="none" stroke="#e54529" stroke-width="1.44" stroke-linecap="round"/><g data-paper-data="{&quot;index&quot;:null}"><path d="M224.33221,192.197l-4.007,3.922" fill="none" stroke="#e54529" stroke-width="2.88" stroke-linecap="round"/><path d="M223.25021,191.101c-4.662,-5.902 -3.554,-14.385 2.475,-18.948c6.029,-4.564 14.696,-3.479 19.357,2.422c4.663,5.902 3.554,14.385 -2.474,18.948c-6.029,4.563 -14.696,3.479 -19.358,-2.422" fill="#ffdb5d" stroke="none" stroke-width="1" stroke-linecap="butt"/><path d="M229.69121,186.226c-1.911,-2.42 -1.457,-5.898 1.014,-7.769c2.472,-1.871 6.026,-1.427 7.937,0.994c1.911,2.419 1.457,5.897 -1.015,7.767c-2.471,1.872 -6.025,1.427 -7.936,-0.992" fill="#fff4e3" stroke="none" stroke-width="1" stroke-linecap="butt"/><path d="M231.24621,185.048c-1.247,-1.579 -0.951,-3.848 0.662,-5.07c1.613,-1.22 3.932,-0.929 5.179,0.649c1.247,1.579 0.951,3.848 -0.662,5.07c-1.613,1.221 -3.931,0.931 -5.179,-0.649" fill="#17242d" stroke="none" stroke-width="1" stroke-linecap="butt"/><path d="M219.05021,167.866c1.903,-1.441 4.64,-1.098 6.112,0.765c1.472,1.864 1.122,4.542 -0.781,5.983" fill="none" stroke="#ffdb5d" stroke-width="1.44" stroke-linecap="butt"/></g><path d="M274.33321,165.108c8.704,11.018 6.635,26.858 -4.621,35.378c-11.256,8.521 -27.439,6.496 -36.143,-4.523z" data-paper-data="{&quot;index&quot;:null}" fill="#ffdb5d" stroke="none" stroke-width="1" stroke-linecap="butt"/><path d="M266.21321,171.292c4.018,5.086 3.063,12.396 -2.132,16.329c-5.196,3.933 -12.664,2.997 -16.682,-2.088z" data-paper-data="{&quot;index&quot;:null}" fill="#fecb43" stroke="none" stroke-width="1" stroke-linecap="butt"/><path d="M251.38921,182.643l2.882,-13.664c0.408,-1.935 1.51,-3.663 3.107,-4.872l10.115,-7.657l6.904,8.74z" data-paper-data="{&quot;index&quot;:null}" fill="#ffdb5d" stroke="none" stroke-width="1" stroke-linecap="butt"/></g></g></svg>